<svg id="visual" viewBox="0 0 900 600" width="900" height="600" xmlns="http://www.w3.org/2000/svg" xmlns:xlink="http://www.w3.org/1999/xlink" version="1.1"><rect x="0" y="0" width="900" height="600" fill="#1a1a1a"></rect><path d="M71 0L66.3 12.5C61.7 25 52.3 50 47.7 75C43 100 43 125 44.8 150C46.7 175 50.3 200 52.5 225C54.7 250 55.3 275 54.3 300C53.3 325 50.7 350 49.8 375C49 400 50 425 49.3 450C48.7 475 46.3 500 47.5 525C48.7 550 53.3 575 55.7 587.5L58 600L0 600L0 587.5C0 575 0 550 0 525C0 500 0 475 0 450C0 425 0 400 0 375C0 350 0 325 0 300C0 275 0 250 0 225C0 200 0 175 0 150C0 125 0 100 0 75C0 50 0 25 0 12.5L0 0Z" fill="#706bff"></path><path d="M33 0L33.5 12.5C34 25 35 50 36 75C37 100 38 125 38.2 150C38.3 175 37.7 200 36 225C34.3 250 31.7 275 34.3 300C37 325 45 350 46.2 375C47.3 400 41.7 425 39.7 450C37.7 475 39.3 500 41.2 525C43 550 45 575 46 587.5L47 600L0 600L0 587.5C0 575 0 550 0 525C0 500 0 475 0 450C0 425 0 400 0 375C0 350 0 325 0 300C0 275 0 250 0 225C0 200 0 175 0 150C0 125 0 100 0 75C0 50 0 25 0 12.5L0 0Z" fill="#5852ff"></path><path d="M21 0L22.8 12.5C24.7 25 28.3 50 27.3 75C26.3 100 20.7 125 20.2 150C19.7 175 24.3 200 27.2 225C30 250 31 275 30.2 300C29.3 325 26.7 350 27 375C27.3 400 30.7 425 30.7 450C30.7 475 27.3 500 26 525C24.7 550 25.3 575 25.7 587.5L26 600L0 600L0 587.5C0 575 0 550 0 525C0 500 0 475 0 450C0 425 0 400 0 375C0 350 0 325 0 300C0 275 0 250 0 225C0 200 0 175 0 150C0 125 0 100 0 75C0 50 0 25 0 12.5L0 0Z" fill="#3c36ff"></path></svg>